<?xml version="1.0" encoding="UTF-8"?>
<svg width="32" height="32" viewBox="0 0 32 32" xmlns="http://www.w3.org/2000/svg">
    <!-- Cup -->
    <path d="M10,12 L22,12 L20,24 C20,26 18,28 16,28 C14,28 12,26 12,24 L10,12" 
          fill="#f1faee" stroke="#2a9d8f" stroke-width="2"/>
    <!-- Steam -->
    <path d="M14,8 L14,4 M16,6 L16,2 M18,8 L18,4" 
          stroke="#2a9d8f" stroke-width="1.5" stroke-linecap="round"/>
    <!-- Heart -->
    <path d="M16,16 C16,16 20,20 20,24 C20,28 16,32 16,32 C16,32 12,28 12,24 C12,20 16,16 16,16" 
          fill="#e63946" opacity="0.4"/>
</svg> 